<?xml version="1.0" encoding="UTF-8" standalone="no"?>
<svg width="1440px" height="530px" viewBox="0 0 1440 530" version="1.1" xmlns="http://www.w3.org/2000/svg" xmlns:xlink="http://www.w3.org/1999/xlink">
    <!-- Generator: Sketch 41.2 (35397) - http://www.bohemiancoding.com/sketch -->
    <title>wave2</title>
    <desc>Created with Sketch.</desc>
    <defs>
        <linearGradient x1="49.958125%" y1="89.8770319%" x2="50.2761719%" y2="-4.27612143%" id="linearGradient-1">
            <stop stop-color="#3981D7" offset="0%"></stop>
            <stop stop-color="#00CB74" offset="100%"></stop>
        </linearGradient>
        <linearGradient x1="49.7783125%" y1="75.8905911%" x2="48.7123437%" y2="-2.40499219%" id="linearGradient-2">
            <stop stop-color="#3981D7" offset="0%"></stop>
            <stop stop-color="#50E3C2" offset="100%"></stop>
        </linearGradient>
        <linearGradient x1="-56486.0164%" y1="29494.08%" x2="-57649.9323%" y2="-29109%" id="linearGradient-3">
            <stop stop-color="#3981D7" offset="0%"></stop>
            <stop stop-color="#FF5823" offset="100%"></stop>
        </linearGradient>
    </defs>
    <g id="Welcome" stroke="none" stroke-width="1" fill="none" fill-rule="evenodd">
        <g id="Desktop-HD-Copy" transform="translate(0.000000, -224.000000)">
            <g id="wave2" transform="translate(0.000000, 224.000000)">
                <g id="home-hero">
                    <g id="Backdrop">
                        <path d="M951.75,109.790972 C853.3125,202.209722 773.544375,308.817014 658.63125,388.298611 C593.1225,359.912326 527.32125,327.21059 459.5625,291.058333 C326.5875,220.115625 118.726875,214.557986 0,291.269965 L0,529.93559 L1440,529.93559 L1440,75.9114583 C1328.90625,-0.0644097222 1132.66125,-60.0758681 951.75,109.790972 Z" id="Shape" fill="url(#linearGradient-1)"></path>
                        <path d="M0,291.269965 C118.726875,214.557986 326.5875,220.115625 459.5625,291.058333 C773.4375,458.523611 1045.40625,552.018924 1440,483.928646 L1440,529.93559 L0,529.93559 L0,291.269965 Z" id="Shape" fill="url(#linearGradient-2)"></path>
                        <path d="M1440,75.9114583 C1328.90625,-0.0644097222 1132.66125,-60.0850694 951.75,109.790972 C735.1875,313.141667 608.90625,585.143924 0,485.768924 L0,529.93559 L1440,529.93559 L1440,75.9114583 Z" id="Shape" fill="url(#linearGradient-3)" opacity="0.25"></path>
                    </g>
                </g>
            </g>
        </g>
    </g>
</svg>